<svg aria-hidden="true" style="position: absolute; width: 0; height: 0; overflow: hidden;" version="1.1" xmlns="http://www.w3.org/2000/svg" xmlns:xlink="http://www.w3.org/1999/xlink">
<defs>
  
<symbol id="icon-arrow-right" viewBox="0 0 24 24">
   <path d="M7.5 21L16.5 12L7.5 3" stroke="#AB9F98" stroke-width="2" stroke-linecap="round" stroke-linejoin="round" fill="none" />
  </symbol>
<symbol id="icon-arrow-left" viewBox="0 0 24 24">
  <path d="M16.5 3L7.5 12L16.5 21" stroke="#AB9F98" stroke-width="2" stroke-linecap="round" stroke-linejoin="round" fill="none" />
</symbol>



  
<symbol id="icon-google-play" viewBox="0 0 40 40">
 <path fill="none" d="M0,0h40v40H0V0z"></path>
          <g>
            <path d="M19.7,19.2L4.3,35.3c0,0,0,0,0,0c0.5,1.7,2.1,3,4,3c0.8,0,1.5-0.2,2.1-0.6l0,0l17.4-9.9L19.7,19.2z"
              fill="#EA4335"></path>
            <path
              d="M35.3,16.4L35.3,16.4l-7.5-4.3l-8.4,7.4l8.5,8.3l7.5-4.2c1.3-0.7,2.2-2.1,2.2-3.6C37.5,18.5,36.6,17.1,35.3,16.4z"
              fill="#FBBC04"></path>
            <path d="M4.3,4.7C4.2,5,4.2,5.4,4.2,5.8v28.5c0,0.4,0,0.7,0.1,1.1l16-15.7L4.3,4.7z" fill="#4285F4"></path>
            <path d="M19.8,20l8-7.9L10.5,2.3C9.9,1.9,9.1,1.7,8.3,1.7c-1.9,0-3.6,1.3-4,3c0,0,0,0,0,0L19.8,20z" fill="#34A853">
            </path>
          </g>
</symbol>
   
 <symbol id="icon-star-gold" viewBox="0 0 16 16">
  <path fill-rule="evenodd" clip-rule="evenodd" d="M8.31359 0.205137L8.3986 0.385783C9.77239 3.30534 12.5103 5.34873 15.7 5.83512C15.8321 5.85566 15.9417 5.95266 15.9829 6.0855C16.024 6.21834 15.9896 6.36408 15.8941 6.46169C13.5726 8.83575 12.5182 12.1722 13.054 15.4492L13.0737 15.57C13.0966 15.7075 13.0428 15.8466 12.9348 15.9288C12.8269 16.011 12.6836 16.0219 12.5655 15.9569C9.72391 14.39 6.27694 14.3904 3.43557 15.9576C3.31748 16.0228 3.17417 16.0121 3.06616 15.93C2.95816 15.8478 2.9043 15.7086 2.92735 15.571L2.94714 15.4499C3.48281 12.1725 2.42801 8.83572 0.105869 6.46169C0.0103498 6.36408 -0.0240346 6.21834 0.0171182 6.0855C0.058271 5.95266 0.167857 5.85566 0.299974 5.83512C3.48981 5.34871 6.22788 3.30556 7.60223 0.38617L7.68745 0.205137C7.74557 0.0796823 7.86718 0 8.00052 0C8.13386 0 8.25547 0.0796823 8.31359 0.205137Z" fill="#F59E0B" />
  </symbol>



  <symbol id="icon-star" viewBox="0 0 16 16">
  <path fill-rule="evenodd" clip-rule="evenodd" d="M8.31359 0.205137L8.3986 0.385783C9.77239 3.30534 12.5103 5.34873 15.7 5.83512C15.8321 5.85566 15.9417 5.95266 15.9829 6.0855C16.024 6.21834 15.9896 6.36408 15.8941 6.46169C13.5726 8.83575 12.5182 12.1722 13.054 15.4492L13.0737 15.57C13.0966 15.7075 13.0428 15.8466 12.9348 15.9288C12.8269 16.011 12.6836 16.0219 12.5655 15.9569C9.72391 14.39 6.27694 14.3904 3.43557 15.9576C3.31748 16.0228 3.17417 16.0121 3.06616 15.93C2.95816 15.8478 2.9043 15.7086 2.92735 15.571L2.94714 15.4499C3.48281 12.1725 2.42801 8.83572 0.105869 6.46169C0.0103498 6.36408 -0.0240346 6.21834 0.0171182 6.0855C0.058271 5.95266 0.167857 5.85566 0.299974 5.83512C3.48981 5.34871 6.22788 3.30556 7.60223 0.38617L7.68745 0.205137C7.74557 0.0796823 7.86718 0 8.00052 0C8.13386 0 8.25547 0.0796823 8.31359 0.205137Z" fill="#D0BF9E" />

  </symbol>
      </defs>
</svg>

