<svg aria-hidden="true" style="position: absolute; width: 0; height: 0; overflow: hidden;" version="1.1" xmlns="http://www.w3.org/2000/svg" xmlns:xlink="http://www.w3.org/1999/xlink">
<defs>
<symbol id="icon-google-play" viewBox="0 0 30 32">
<path d="M0.885 0.493c-0.375 0.383-0.592 0.978-0.592 1.75v27.521c0 0.772 0.217 1.367 0.592 1.75l0.093 0.084 15.83-15.416v-0.364l-15.83-15.416-0.093 0.090z"></path>
<path d="M22.078 21.323l-5.271-5.141v-0.364l5.277-5.141 0.118 0.067 6.25 3.464c1.783 0.983 1.783 2.601 0 3.59l-6.374 3.525z"></path>
<path d="M22.203 21.256l-5.395-5.256-15.922 15.514c0.592 0.607 1.558 0.68 2.657 0.073l18.661-10.33z"></path>
<path d="M22.203 10.744l-18.661-10.331c-1.099-0.6-2.065-0.527-2.657 0.079l15.922 15.507 5.395-5.256z"></path>
</symbol>
<symbol id="icon-star" viewBox="0 0 32 32">
<path fill="#d0bf9e" style="fill: var(--color1, #d0bf9e)" d="M16.627 0.41l0.17 0.361c2.748 5.839 8.223 9.926 14.603 10.899 0.264 0.041 0.483 0.235 0.566 0.501s0.013 0.557-0.178 0.752c-4.643 4.748-6.752 11.421-5.68 17.975l0.039 0.242c0.046 0.275-0.062 0.553-0.278 0.718s-0.502 0.186-0.739 0.056c-5.683-3.134-12.577-3.133-18.26 0.001-0.236 0.13-0.523 0.109-0.739-0.055s-0.324-0.443-0.278-0.718l0.040-0.242c1.071-6.555-1.038-13.228-5.683-17.976-0.191-0.195-0.26-0.487-0.177-0.752s0.301-0.46 0.566-0.501c6.38-0.973 11.856-5.059 14.604-10.898l0.17-0.362c0.116-0.251 0.359-0.41 0.626-0.41s0.51 0.159 0.626 0.41z"></path>
</symbol>
<symbol id="icon-star-filled" viewBox="0 0 32 32">
<path fill="#f59e0b" style="fill: var(--color2, #f59e0b)" d="M16.627 0.41l0.17 0.361c2.748 5.839 8.223 9.926 14.603 10.899 0.264 0.041 0.483 0.235 0.566 0.501s0.013 0.557-0.178 0.752c-4.643 4.748-6.752 11.421-5.68 17.975l0.039 0.242c0.046 0.275-0.062 0.553-0.278 0.718s-0.502 0.186-0.739 0.056c-5.683-3.134-12.577-3.133-18.26 0.001-0.236 0.13-0.523 0.109-0.739-0.055s-0.324-0.443-0.278-0.718l0.040-0.242c1.071-6.555-1.038-13.228-5.683-17.976-0.191-0.195-0.26-0.487-0.177-0.752s0.301-0.46 0.566-0.501c6.38-0.973 11.856-5.059 14.604-10.898l0.17-0.362c0.116-0.251 0.359-0.41 0.626-0.41s0.51 0.159 0.626 0.41z"></path>
</symbol>
</defs>
</svg>
